<svg width="2000" height="800" viewBox="0 0 2000 800" fill="none" xmlns="http://www.w3.org/2000/svg">
<rect width="2000" height="800" fill="#2A2A37"/>
<path d="M882.408 583.83H877.228V541.13L861.758 583.83H854.758L839.288 541.13V583.83H834.038V530.56H840.898L858.258 578.86L875.548 530.56H882.408V583.83ZM938.812 583.83H933.492V544.35H938.812V583.83ZM938.812 537.63H933.492V530.56H938.812V537.63ZM1022.29 583.76H1017.04V560.66C1017.04 557.347 1016.25 554.617 1014.66 552.47C1013.12 550.277 1010.84 549.18 1007.8 549.18C1004.49 549.18 1001.55 550.44 998.983 552.96C996.417 555.48 995.133 558.49 995.133 561.99V583.76H989.883V545.68H995.133V551.07C999.52 546.543 1004.28 544.28 1009.41 544.28C1013.1 544.28 1016.16 545.727 1018.58 548.62C1021.06 551.513 1022.29 554.99 1022.29 559.05V583.76ZM1086.73 579.84V584.04C1082.81 583.993 1079.91 583.293 1078.05 581.94C1076.23 580.633 1075.32 577.997 1075.32 574.03V549.74H1069.58V545.61H1075.32V530.56H1080.57V545.61H1087.43V549.74H1080.57V572.98C1080.57 575.5 1081.03 577.25 1081.97 578.23C1082.9 579.21 1084.49 579.747 1086.73 579.84ZM1167.89 545.61L1150.95 587.54C1149.83 590.013 1148.26 591.693 1146.26 592.58C1144.25 593.467 1141.68 593.933 1138.56 593.98V589.92H1140.03C1141.29 589.92 1142.38 589.64 1143.32 589.08C1144.3 588.567 1145.11 587.75 1145.77 586.63C1146.47 585.51 1147 584.507 1147.38 583.62C1147.75 582.78 1148.19 581.59 1148.71 580.05L1132.54 545.61H1138.07L1151.23 573.82L1162.43 545.61H1167.89Z" fill="white"/>
<path d="M914.375 411.714C862.631 274.116 965.238 294.051 1109.29 181.532C1228.61 88.3297 1106.39 596.229 914.375 411.714Z" stroke="#23D188" stroke-width="35"/>
<path d="M1000.39 332.496C939.276 384.901 880 455.513 880 493.408" stroke="#23D188" stroke-width="35" stroke-linecap="round" stroke-linejoin="round"/>
</svg>
